# xmcd
#
# Track frame offsets:
#	150
#	29550
#	60975
#	99750
#	124875
#	159000
#
# Disc length: 2528 seconds
#
# Revision: 5
# Processed by: cddbd v1.5.2PL0 Copyright (c) Steve Scherf et al.
# Submitted via: audiograbber 1.83.01
#
DISCID=3c09de06
DTITLE=Johnny Lytle - Happy Ground
DYEAR=1989
DGENRE=Jazz
TTITLE0=Happy Ground
TTITLE1=A Child Is Born
TTITLE2=Little Sunflower
TTITLE3=What Now My Love
TTITLE4=St. Louis Blues
TTITLE5=Melinda
EXTD=ID3G:   8 YEAR: 1989
EXTT0=
EXTT1=
EXTT2=
EXTT3=
EXTT4=
EXTT5=
PLAYORDER=
